<svg id="Capa_1" enable-background="new 0 0 512 512" height="512" viewBox="0 0 512 512" width="512" xmlns="http://www.w3.org/2000/svg"><path d="m512 149.929c0 63.755-84.402 115.439-188.517 115.439s-188.517-51.684-188.517-115.439 84.402-88.322 188.517-88.322 188.517 24.567 188.517 88.322z" fill="#c8c1c9"/><path d="m457.3 82.079c10.155 11.493 15.803 25.345 15.803 41.819 0 63.755-84.402 115.44-188.517 115.44-44.684 0-85.728-9.526-118.036-25.434 33.795 31.025 91.463 51.466 156.933 51.466 104.115 0 188.517-51.684 188.517-115.44 0-31.716-20.891-53.73-54.7-67.851z" fill="#a698a6"/><path d="m455.246 155.308c0 111.384-58.992 201.678-131.763 201.678s-131.763-90.294-131.763-201.678 58.993-154.303 131.763-154.303 131.763 42.919 131.763 154.303z" fill="#ffcbbe"/><path d="m401.433 23.347c11.723 22.986 18.464 52.792 18.464 90.422 0 111.384-58.992 201.678-131.763 201.678-22.155 0-43.027-8.382-61.352-23.167 24.068 39.789 58.481 64.707 96.701 64.707 72.771 0 131.763-90.295 131.763-201.678 0-66.737-21.183-108.887-53.813-131.962z" fill="#fdad9d"/><ellipse cx="268.291" cy="166.824" fill="#845151" rx="13.943" ry="13.943" transform="matrix(.005 -1 1 .005 100.077 434.246)"/><ellipse cx="378.676" cy="168.28" fill="#845151" rx="13.943" ry="13.943" transform="matrix(.005 -1 1 .005 208.433 546.078)"/><path d="m288.131 144.247c-1.825 0-3.658-.642-5.131-1.948-2.391-2.121-7.51-4.386-14.71-4.386s-12.319 2.266-14.71 4.386c-3.196 2.837-8.086 2.543-10.922-.655-2.835-3.196-2.542-8.086.655-10.922 5.935-5.264 15.039-8.283 24.977-8.283s19.041 3.019 24.977 8.283c3.196 2.836 3.49 7.726.655 10.922-1.529 1.724-3.656 2.603-5.791 2.603z" fill="#a698a6"/><path d="m398.516 145.193c-1.824 0-3.657-.642-5.13-1.948-2.392-2.12-7.511-4.385-14.711-4.385s-12.319 2.266-14.711 4.385c-3.197 2.837-8.088 2.542-10.921-.656-2.835-3.197-2.542-8.086.656-10.921 5.935-5.264 15.039-8.282 24.976-8.282s19.04 3.018 24.976 8.282c3.197 2.835 3.491 7.724.656 10.921-1.528 1.724-3.654 2.604-5.791 2.604z" fill="#a698a6"/><path d="m474.192 176.89c-3.4-9.655-17.501-8.324-19.13 1.782-8.194 50.82-28.626 94.26-56.236 122.578-9.609 9.856-25.406 10.338-35.517.998-10.466-9.667-24.456-15.573-39.826-15.573s-29.36 5.906-39.826 15.573c-10.112 9.34-25.908 8.857-35.517-.998-27.61-28.318-48.042-71.757-56.236-122.578-1.629-10.105-15.73-11.436-19.13-1.782-8.541 24.25-13.274 53.373-13.274 87.885 0 135.983 73.418 246.219 163.983 246.219s163.983-110.236 163.983-246.219c0-34.511-4.733-63.634-13.274-87.885z" fill="#c8c1c9"/><path d="m474.192 176.89c-3.4-9.655-17.501-8.323-19.13 1.782-4.066 25.223-11.151 48.624-20.628 69.264.26 5.469.404 11.072.404 16.84 0 122.532-59.615 224.142-137.669 243.048 8.568 2.075 17.355 3.171 26.314 3.171 90.565 0 163.983-110.236 163.983-246.219 0-34.512-4.733-63.635-13.274-87.886z" fill="#a698a6"/><ellipse cx="323.483" cy="234.09" fill="#fa6931" rx="32.356" ry="23.548"/><path d="m323.483 210.542c-4.144 0-8.102.573-11.743 1.606 12.062 3.422 20.613 11.953 20.613 21.942 0 9.99-8.551 18.52-20.613 21.942 3.641 1.033 7.599 1.606 11.743 1.606 17.87 0 32.356-10.543 32.356-23.549 0-13.004-14.486-23.547-32.356-23.547z" fill="#fc5327"/><path d="m395.248 226.099c-16.406-26.536-45.96-39.183-71.765-32.886-25.805-6.298-55.359 6.35-71.765 32.886-8.483 13.721-12.076 28.93-11.195 43.222.004.064.008.127.013.19.62 7.831 11.369 9.466 14.569 2.292 11.666-26.152 37.891-44.382 68.377-44.382s56.711 18.23 68.377 44.382c3.2 7.174 13.949 5.54 14.569-2.291.005-.063.009-.127.013-.19.883-14.293-2.71-29.502-11.193-43.223z" fill="#c8c1c9"/><path d="m395.248 226.099c-16.239-26.265-45.357-38.912-70.972-33.06 17.646 3.831 34.46 15.345 45.413 33.06 5.348 8.65 8.748 17.892 10.313 27.122 4.837 5.571 8.868 11.86 11.905 18.69 3.058 6.878 13.444 5.658 14.458-1.8.035-.259.061-.522.078-.79.881-14.292-2.712-29.501-11.195-43.222z" fill="#a698a6"/><path d="m130.484 52.818c0-24.8-20.104-44.904-44.904-44.904h-40.676c-24.8 0-44.904 20.104-44.904 44.904 0 24.8 20.104 44.904 44.904 44.904h35.705c.291 0 .576.079.826.228l29.174 17.429c3.517 2.101 7.778-1.222 6.598-5.145l-5.818-19.341c-.199-.66.051-1.364.608-1.77 11.202-8.165 18.487-21.381 18.487-36.305z" fill="#fbcb80"/><path d="m111.997 89.123c11.253-8.201 18.553-21.5 18.487-36.505-.109-24.843-20.801-44.703-45.645-44.703h-34.804c24.8 0 44.904 20.104 44.904 44.904 0 12.764-5.329 24.279-13.88 32.452-3.333 3.186-4.49 8.036-3.161 12.452h2.712c.291 0 .576.079.825.228l29.174 17.429c3.517 2.101 7.778-1.222 6.598-5.145l-5.818-19.341c-.199-.661.051-1.365.608-1.771z" fill="#f9c36e"/><circle cx="102.706" cy="181.961" fill="#fbcb80" r="10.879"/><circle cx="73.768" cy="149.04" fill="#fbcb80" r="19.031"/><path d="m80.132 131.123c.708 1.993 1.114 4.128 1.114 6.364 0 10.511-8.521 19.031-19.031 19.031-2.235 0-4.371-.405-6.364-1.113 2.621 7.376 9.642 12.667 17.918 12.667 10.511 0 19.031-8.521 19.031-19.031-.001-8.276-5.292-15.297-12.668-17.918z" fill="#f9c36e"/><g fill="#e7b467"><path d="m87.271 45.534h-44.058c-4.273 0-7.737-3.463-7.737-7.737s3.463-7.737 7.737-7.737h44.058c4.273 0 7.737 3.463 7.737 7.737s-3.464 7.737-7.737 7.737z"/><path d="m87.271 74.501h-44.058c-4.273 0-7.737-3.463-7.737-7.737 0-4.273 3.463-7.737 7.737-7.737h44.058c4.273 0 7.737 3.463 7.737 7.737-.001 4.274-3.464 7.737-7.737 7.737z"/></g></svg>